<svg width="16" height="16" viewBox="0 0 16 16" fill="none" xmlns="http://www.w3.org/2000/svg">
<path d="M16 8C16 12.0871 12.935 15.4584 8.97813 15.9408L10.8803 8.84197C10.9222 8.69833 10.9536 8.55024 10.9738 8.39856C11.022 8.04181 11.0046 7.68777 10.9295 7.35043C10.8902 7.1722 10.835 6.99993 10.7655 6.83516C10.6591 6.58248 10.5167 6.34141 10.338 6.11984C10.3053 6.07907 10.2715 6.03911 10.2366 6.00003H15.748C15.9125 6.63926 16 7.30941 16 8Z" fill="black"/>
<path d="M0 8C0 12.3939 3.54238 15.9605 7.92708 15.9997L9.35286 10.6786C9.2725 10.7192 9.1907 10.756 9.10773 10.7889C8.95426 10.8499 8.79457 10.8986 8.62987 10.9338C8.30323 11.0042 7.96125 11.0206 7.61654 10.9757C7.36204 10.9433 7.11751 10.8789 6.88706 10.7868C6.74104 10.7286 6.59866 10.6584 6.46143 10.5763C6.2323 10.4396 6.02531 10.2744 5.84398 10.0867L0.633046 4.87574C0.225468 5.83559 0 6.89147 0 8Z" fill="black"/>
<path d="M5.00411 7.83258L1.10762 3.9361C2.49972 1.58018 5.06533 0 8 0C11.3574 0 14.2317 2.06818 15.4185 5.00003H8.06552C7.82449 4.99457 7.58675 5.01847 7.35673 5.06916C7.16868 5.11024 6.98723 5.16896 6.81419 5.2435C6.56596 5.3502 6.3292 5.49196 6.11145 5.6688C5.82758 5.89839 5.58393 6.18088 5.39734 6.50655C5.33609 6.61313 5.28193 6.72267 5.23484 6.83448C5.13128 7.07988 5.05943 7.34193 5.02443 7.6155C5.01496 7.68802 5.00821 7.76042 5.00411 7.83258Z" fill="black"/>
<path d="M8 10C9.10457 10 10 9.10457 10 8C10 6.89543 9.10457 6 8 6C6.89543 6 6 6.89543 6 8C6 9.10457 6.89543 10 8 10Z" fill="black"/>
</svg>
