<svg width="16" height="16" viewBox="0 0 16 16" fill="none" xmlns="http://www.w3.org/2000/svg">
<path d="M4.35466 0.5216C4.61888 0.441331 4.89814 0.590452 4.97841 0.854671L5.26898 1.81114C6.05408 1.29836 6.99257 1.00001 8 1.00001C9.00743 1.00001 9.94592 1.29836 10.731 1.81114L11.0216 0.854671C11.1019 0.590452 11.3811 0.441331 11.6453 0.5216C11.9096 0.601868 12.0587 0.881131 11.9784 1.14535L11.5678 2.49702C12.4531 3.39867 13 4.63575 13 6.00001H13.5C13.7761 6.00001 14 5.77615 14 5.50001V5.00001C14 4.72387 14.2239 4.50001 14.5 4.50001C14.7761 4.50001 15 4.72387 15 5.00001V5.50001C15 6.32844 14.3284 7.00001 13.5 7.00001H13V8.00001H14.5C14.7761 8.00001 15 8.22387 15 8.50001C15 8.77615 14.7761 9.00001 14.5 9.00001H13V10H13.5C14.3284 10 15 10.6716 15 11.5V12C15 12.2762 14.7761 12.5 14.5 12.5C14.2239 12.5 14 12.2762 14 12V11.5C14 11.2239 13.7761 11 13.5 11H13C13 13.7614 10.7614 16 8 16C5.23858 16 3 13.7614 3 11H2.5C2.22386 11 2 11.2239 2 11.5V12C2 12.2762 1.77614 12.5 1.5 12.5C1.22386 12.5 1 12.2762 1 12V11.5C1 10.6716 1.67157 10 2.5 10H3V9.00001H1.5C1.22386 9.00001 1 8.77615 1 8.50001C1 8.22387 1.22386 8.00001 1.5 8.00001H3V7.00001H2.5C1.67157 7.00001 1 6.32844 1 5.50001V5.00001C1 4.72387 1.22386 4.50001 1.5 4.50001C1.77614 4.50001 2 4.72387 2 5.00001V5.50001C2 5.77615 2.22386 6.00001 2.5 6.00001H3C3 4.63575 3.54692 3.39867 4.43222 2.49702L4.02159 1.14535C3.94132 0.881131 4.09044 0.601868 4.35466 0.5216ZM4 7.00001V11C4 13.0398 5.52684 14.723 7.5 14.9691V7.00001H4ZM8.5 7.00001V14.9691C10.4732 14.723 12 13.0398 12 11V7.00001H8.5ZM12 6.00001C12 4.81539 11.4857 3.75156 10.6665 3.01842C9.95854 2.38473 9.02479 2.00001 8 2.00001C6.97521 2.00001 6.04146 2.38473 5.33346 3.01842C4.51433 3.75156 4 4.81539 4 6.00001H12Z" fill="black"/>
</svg>
