<svg width="16" height="16" viewBox="0 0 16 16" fill="none" xmlns="http://www.w3.org/2000/svg">
<path d="M12.096 6.22295C12.4201 6.07563 12.729 5.90046 13 5.69813V7C13 7.28884 12.7873 7.65415 12.2466 8.00701C12.3305 8.00236 12.415 8 12.5 8C13.026 8 13.5308 8.09023 14 8.25606V4C14 2.993 13.1249 2.24472 12.096 1.77705C11.022 1.28886 9.57336 1 8 1C6.42664 1 4.97802 1.28886 3.90401 1.77705C2.87513 2.24472 2 2.993 2 4V13C2 14.007 2.87513 14.7553 3.90401 15.2229C4.97802 15.7111 6.42664 16 8 16C8.53623 16 9.05798 15.9664 9.55534 15.9029C9.24393 15.6332 8.96992 15.3214 8.74213 14.9765C8.50036 14.9919 8.2526 15 8 15C6.53579 15 5.23441 14.7292 4.31781 14.3126C3.35608 13.8754 3 13.3737 3 13V11.6981C3.27105 11.9005 3.5799 12.0756 3.90401 12.2229C4.97802 12.7111 6.42664 13 8 13C8.00916 13 8.01831 13 8.02746 13C8.00932 12.8358 8 12.669 8 12.5C8 12.331 8.00932 12.1641 8.02747 12C8.01832 12 8.00916 12 8 12C6.53579 12 5.23441 11.7292 4.31781 11.3126C3.35608 10.8754 3 10.3737 3 10V8.69813C3.27105 8.90046 3.5799 9.07563 3.90401 9.22295C4.97802 9.71114 6.42664 10 8 10C8.26172 10 8.51999 9.99201 8.77366 9.97643C9.07177 9.53711 9.44552 9.15327 9.87622 8.84366C9.29844 8.94397 8.66607 9 8 9C6.53579 9 5.23441 8.72922 4.31781 8.31258C3.35608 7.87543 3 7.37372 3 7V5.69813C3.27105 5.90046 3.5799 6.07563 3.90401 6.22295C4.97802 6.71114 6.42664 7 8 7C9.57336 7 11.022 6.71114 12.096 6.22295ZM3 4C3 3.62628 3.35608 3.12457 4.31781 2.68742C5.23441 2.27078 6.53579 2 8 2C9.46421 2 10.7656 2.27078 11.6822 2.68742C12.6439 3.12457 13 3.62628 13 4C13 4.37372 12.6439 4.87543 11.6822 5.31258C10.7656 5.72922 9.46421 6 8 6C6.53579 6 5.23441 5.72922 4.31781 5.31258C3.35608 4.87543 3 4.37372 3 4Z" fill="black"/>
<path d="M12.5 16C14.433 16 16 14.433 16 12.5C16 10.567 14.433 9 12.5 9C10.567 9 9 10.567 9 12.5C9 14.433 10.567 16 12.5 16ZM11.8536 11.1464L12.5 11.7929L13.1464 11.1464C13.3417 10.9512 13.6583 10.9512 13.8536 11.1464C14.0488 11.3417 14.0488 11.6583 13.8536 11.8536L13.2071 12.5L13.8536 13.1464C14.0488 13.3417 14.0488 13.6583 13.8536 13.8536C13.6583 14.0488 13.3417 14.0488 13.1464 13.8536L12.5 13.2071L11.8536 13.8536C11.6583 14.0488 11.3417 14.0488 11.1464 13.8536C10.9512 13.6583 10.9512 13.3417 11.1464 13.1464L11.7929 12.5L11.1464 11.8536C10.9512 11.6583 10.9512 11.3417 11.1464 11.1464C11.3417 10.9512 11.6583 10.9512 11.8536 11.1464Z" fill="black"/>
</svg>
