<svg width="16" height="16" viewBox="0 0 16 16" fill="none" xmlns="http://www.w3.org/2000/svg">
<path fill-rule="evenodd" clip-rule="evenodd" d="M14 4.5V14C14 15.1046 13.1046 16 12 16H9V15H12C12.5523 15 13 14.5523 13 14V4.5H11C10.1716 4.5 9.5 3.82843 9.5 3V1H4C3.44772 1 3 1.44772 3 2V11H2V2C2 0.89543 2.89543 0 4 0H9.5L14 4.5ZM0.706055 13.1889V15.849H0V11.85H0.805664L1.94531 14.4457H1.97168L3.11133 11.85H3.91113V15.849H3.19629V13.1889H3.1582L2.21191 15.348H1.69629L0.744141 13.1889H0.706055ZM4.6248 15.849V11.85H6.08379C6.49004 11.85 6.825 11.9281 7.08867 12.0844C7.35234 12.2406 7.54863 12.4672 7.67754 12.7641C7.8084 13.0609 7.87383 13.4193 7.87383 13.8393C7.87383 14.2611 7.8084 14.6225 7.67754 14.9232C7.54668 15.224 7.34844 15.4535 7.08281 15.6117C6.81914 15.7699 6.48613 15.849 6.08379 15.849H4.6248ZM5.97832 12.4945H5.41582V15.2016H5.97832C6.16387 15.2016 6.325 15.1742 6.46172 15.1195C6.59844 15.0629 6.70977 14.9789 6.7957 14.8676C6.88359 14.7543 6.94902 14.6137 6.99199 14.4457C7.03691 14.2777 7.05937 14.0805 7.05937 13.8539C7.05937 13.5531 7.02031 13.3021 6.94219 13.101C6.86602 12.8998 6.74785 12.7484 6.5877 12.6469C6.42949 12.5453 6.22637 12.4945 5.97832 12.4945Z" fill="black"/>
</svg>
