<svg id="ep74EAItBGf1" xmlns="http://www.w3.org/2000/svg" xmlns:xlink="http://www.w3.org/1999/xlink" viewBox="0 0 300 300" shape-rendering="geometricPrecision" text-rendering="geometricPrecision"><path d="M0,150C0,67.15729,67.15729,0,150,0s150,67.15729,150,150-67.15729,150-150,150-150-67.15729-150-150ZM150,282c72.90159,0,132-59.09841,132-132s-59.09841-132-132-132-132,59.09841-132,132s59.09841,132,132,132Z" fill="#633f59" stroke-width="0"/><path d="M66,150c0-46.39192,37.60808-84,84-84s84,37.60808,84,84-37.60808,84-84,84-84-37.60808-84-84Zm84,66c36.45079,0,66-29.54921,66-66s-29.54921-66-66-66-66,29.54921-66,66s29.54921,66,66,66Z" fill="#633f59" stroke-width="0"/></svg>
