<svg id="ebmN2GzpaTZ1" xmlns="http://www.w3.org/2000/svg" xmlns:xlink="http://www.w3.org/1999/xlink" viewBox="0 0 100 100" shape-rendering="geometricPrecision" text-rendering="geometricPrecision"><path d="M0,50C0,22.38576,22.38576,0,50,0s50,22.38576,50,50-22.38576,50-50,50-50-22.38576-50-50ZM50,94c24.30053,0,44-19.69947,44-44s-19.69947-44-44-44-44,19.69947-44,44s19.69947,44,44,44Z" fill="#633f59" stroke-width="0"/><path d="M22,50c0-15.46397,12.53603-28,28-28s28,12.53603,28,28-12.53603,28-28,28-28-12.53603-28-28ZM50,72c12.15026,0,22-9.84974,22-22s-9.84974-22-22-22-22,9.84974-22,22s9.84974,22,22,22Z" fill="#633f59" stroke-width="0"/></svg>
