<svg width="16" height="16" viewBox="0 0 16 16" fill="none" xmlns="http://www.w3.org/2000/svg">
<path d="M11.5338 7H15.4662C15.6782 7 15.794 7.24721 15.6583 7.41005L13.6921 9.76953C13.5921 9.88947 13.4079 9.88947 13.3079 9.76953L11.3417 7.41005C11.206 7.24721 11.3218 7 11.5338 7Z" fill="black"/>
<path d="M0.533758 9H4.46624C4.6782 9 4.79399 8.75279 4.65829 8.58995L2.69205 6.23047C2.5921 6.11053 2.40789 6.11053 2.30794 6.23047L0.341702 8.58995C0.206009 8.75279 0.321798 9 0.533758 9Z" fill="black"/>
<path fill-rule="evenodd" clip-rule="evenodd" d="M8 3C6.44751 3 5.06056 3.70697 4.14268 4.81839C3.96684 5.03131 3.65169 5.06137 3.43877 4.88552C3.22585 4.70968 3.19579 4.39453 3.37164 4.18161C4.47134 2.85003 6.13662 2 8 2C10.9417 2 13.388 4.1165 13.9011 6.90967C13.9066 6.9397 13.9119 6.96981 13.917 7H12.9001C12.4371 4.71778 10.4186 3 8 3ZM3.09992 9C3.56293 11.2822 5.58137 13 8 13C9.55249 13 10.9394 12.293 11.8573 11.1816C12.0332 10.9687 12.3483 10.9386 12.5612 11.1145C12.7741 11.2903 12.8042 11.6055 12.6284 11.8184C11.5287 13.15 9.86338 14 8 14C5.05829 14 2.61198 11.8835 2.09891 9.09033C2.0934 9.0603 2.0881 9.03019 2.08304 9H3.09992Z" fill="black"/>
</svg>
