<svg width="16" height="16" viewBox="0 0 16 16" fill="none" xmlns="http://www.w3.org/2000/svg">
<path d="M11.5338 7H15.4663C15.6782 7 15.794 7.24721 15.6583 7.41005L13.6921 9.76953C13.5921 9.88947 13.4079 9.88947 13.308 9.76953L11.3417 7.41005C11.206 7.24721 11.3218 7 11.5338 7Z" fill="#D4D4D4"/>
<path d="M0.533773 9H4.46625C4.67821 9 4.794 8.75279 4.65831 8.58995L2.69207 6.23047C2.59212 6.11053 2.40791 6.11053 2.30796 6.23047L0.341717 8.58995C0.206024 8.75279 0.321813 9 0.533773 9Z" fill="#D4D4D4"/>
<path fill-rule="evenodd" clip-rule="evenodd" d="M8.00001 3C6.44752 3 5.06058 3.70697 4.1427 4.81839C3.96686 5.03131 3.6517 5.06137 3.43879 4.88552C3.22587 4.70968 3.19581 4.39453 3.37165 4.18161C4.47135 2.85003 6.13663 2 8.00001 2C10.9417 2 13.388 4.1165 13.9011 6.90967C13.9066 6.9397 13.9119 6.96981 13.917 7H12.9001C12.4371 4.71778 10.4186 3 8.00001 3ZM3.09993 9C3.56294 11.2822 5.58138 13 8.00001 13C9.5525 13 10.9394 12.293 11.8573 11.1816C12.0332 10.9687 12.3483 10.9386 12.5612 11.1145C12.7742 11.2903 12.8042 11.6055 12.6284 11.8184C11.5287 13.15 9.8634 14 8.00001 14C5.05831 14 2.61199 11.8835 2.09893 9.09033C2.09341 9.0603 2.08812 9.03019 2.08305 9H3.09993Z" fill="#D4D4D4"/>
</svg>
