<svg width="16" height="14" viewBox="0 0 16 14" fill="none" xmlns="http://www.w3.org/2000/svg">
<g clip-path="url(#clip0_3122_954)">
<path d="M13.9843 6.94612C13.994 6.96131 14 6.9803 14 7.00135C14 7.02241 13.994 7.04139 13.9843 7.05659C13.976 7.0697 13.9607 7.08705 13.9269 7.10446L2.26021 13.1043C2.19953 13.1355 2.13602 13.1349 2.07687 13.1062C2.04721 13.0918 2.02764 13.0738 2.01667 13.0583C2.00754 13.0454 2 13.0288 2 13.0012L2 1.00152C2 0.973904 2.00754 0.957288 2.01667 0.944405C2.02764 0.928925 2.04721 0.910924 2.07687 0.896532C2.13602 0.867827 2.19953 0.867199 2.26021 0.898404L13.9269 6.89824C13.9607 6.91565 13.976 6.933 13.9843 6.94612ZM14.4336 7.85882C15.1888 7.47043 15.1888 6.53227 14.4336 6.14388L2.76691 0.144048C1.9893 -0.255856 1 0.224244 1 1.00152L1 13.0012C1 13.7785 1.9893 14.2586 2.76691 13.8587L14.4336 7.85882Z" fill="#D4D4D4"/>
</g>
<defs>
<clipPath id="clip0_3122_954">
<rect width="14" height="16" fill="white" transform="matrix(0 1 -1 0 16 0)"/>
</clipPath>
</defs>
</svg>
